<svg width="18" height="18" viewBox="0 0 18 18" fill="none" xmlns="http://www.w3.org/2000/svg">
<path d="M13.9958 11.1226L12.1576 10.9127C11.7162 10.862 11.282 11.014 10.9708 11.3252L9.63924 12.6568C7.59123 11.6147 5.91229 9.94296 4.8702 7.8877L6.209 6.54888C6.52018 6.2377 6.67216 5.80349 6.6215 5.36205L6.41163 3.53836C6.32479 2.80745 5.70966 2.25745 4.97151 2.25745H3.71955C2.90179 2.25745 2.22153 2.93771 2.27219 3.75547C2.65574 9.93572 7.59847 14.8712 13.7714 15.2548C14.5892 15.3054 15.2695 14.6252 15.2695 13.8074V12.5555C15.2767 11.8245 14.7267 11.2094 13.9958 11.1226Z" fill="#212121"/>
</svg>
