<svg aria-hidden="true" style="position:absolute;width:0;height:0" xmlns="http://www.w3.org/2000/svg" overflow="hidden"><defs><symbol id="icon-about-us-1" viewBox="0 0 30 32"><path d="M29.859 22.098l-8.443-8.505.937-4.615c.242.094.499.144.758.146h.006a2.159 2.159 0 10-2.008-1.435l-4.96.605L8.058.161a.534.534 0 00-.377-.16.532.532 0 00-.373.155L5.795 1.66a.534.534 0 000 .754l.814.826a14.943 14.943 0 002.519 17.663.513.513 0 00.146.098c-.034.18-.051.364-.052.547v6.187h-6.4a2.67 2.67 0 00-2.667 2.667v1.067c0 .295.239.533.533.533h24.533a.533.533 0 00.533-.533v-1.067a2.67 2.67 0 00-2.667-2.667h-6.4v-2.742a15.09 15.09 0 003.049.32 14.854 14.854 0 007.04-1.783l.818.823a.534.534 0 00.377.16.532.532 0 00.373-.155l1.513-1.504a.534.534 0 000-.754zM22.366 6.233a1.066 1.066 0 11.752 1.822h-.003a1.067 1.067 0 01-.747-1.823h-.002zM21.11 9.738l-.598 2.946-1.175-1.182 1.774-1.763zm-.606-.902l-1.92 1.909-1.485-1.493 3.405-.415zM23.09 28.8a1.6 1.6 0 011.6 1.6v.533H1.223V30.4a1.6 1.6 0 011.6-1.6H23.09zm-7.467-2.133v1.067H10.29v-1.067h5.333zM10.29 25.6v-4.053c0-1.294 1.196-2.347 2.667-2.347s2.667 1.053 2.667 2.347V25.6h-5.333zm6.4-1.696v-2.357c0-1.882-1.675-3.413-3.733-3.413a3.8 3.8 0 00-3.281 1.786A13.87 13.87 0 017.397 4.033l18.602 18.708a13.818 13.818 0 01-9.309 1.163zm11.289-.684L6.922 2.039l.755-.752 7.935 7.98c.004 0 .006.007.01.01l13.115 13.191-.757.752z"/></symbol><symbol id="icon-about-us-2" viewBox="0 0 31 32"><path d="M30.84 15.301C30.838 6.849 23.985-.002 15.532 0S.229 6.855.231 15.308A15.304 15.304 0 0010.88 29.884a.662.662 0 00.529-.065.637.637 0 00.283-.356l3.865-12.25a1.912 1.912 0 10-.84-3.635L9.611 8.471a.637.637 0 00-.902.902l5.103 5.109a1.876 1.876 0 00.536 2.309l-3.683 11.673C3.387 25.783-.339 17.71 2.342 10.432S13.096-.572 20.374 2.109s11.004 10.754 8.323 18.032a14.042 14.042 0 01-7.462 7.973l-.398-1.874a.638.638 0 00-1.048-.344l-3.837 3.426a.637.637 0 00.231 1.084l4.899 1.563a.638.638 0 00.819-.74l-.391-1.839a15.255 15.255 0 009.329-14.089zm-15.305-.637a.638.638 0 110 1.277.638.638 0 010-1.277zm2.1 14.864l2.184-1.948.603 2.84-2.787-.892z"/></symbol><symbol id="icon-about-us-3" viewBox="0 0 32 32"><path d="M14.925 14.965h1.066v4.798h-1.066v-4.797zm4.265 2.132h1.066v2.665H19.19v-2.665zm-8.529 1.599h1.066v1.066h-1.066v-1.066zm-3.198-.533h1.066v1.599H7.463v-1.599z"/><path d="M1.599 28.291h25.587a1.6 1.6 0 001.599-1.599V24.56a1.6 1.6 0 00-1.599-1.599h-.533V9.668L29.681 6.8a1.608 1.608 0 10-.746-.763L26.654 8.2V6.97a1.6 1.6 0 00-1.599-1.599H3.733A1.6 1.6 0 002.134 6.97v15.992h-.533a1.6 1.6 0 00-1.599 1.599v2.132a1.6 1.6 0 001.599 1.599zM30.384 4.837a.533.533 0 110 1.067.533.533 0 010-1.067zM3.198 6.969c0-.294.239-.533.533-.533h21.322c.294 0 .533.239.533.533v2.239l-1.066 1.013V8.035a.533.533 0 00-.533-.533H4.797a.533.533 0 00-.533.533v13.326c0 .294.239.533.533.533h19.19a.533.533 0 00.533-.533v-9.674l1.066-1.01v12.284H3.198V6.969zm4.798 6.929a1.598 1.598 0 101.107 2.749l1.853.93a.532.532 0 00.636-.123l3.939-4.431 3.872 2.901a.533.533 0 00.686-.039l3.365-3.188v8.131H5.33V8.568h18.124v2.66L19.683 14.8l-3.904-2.927a.533.533 0 00-.718.072l-3.993 4.493-1.493-.746c.011-.064.018-.129.02-.193A1.6 1.6 0 007.996 13.9zm.533 1.6a.533.533 0 11-1.067 0 .533.533 0 011.067 0zm3.198 8.528h5.331v.533a.533.533 0 01-.533.533h-4.264a.533.533 0 01-.533-.533v-.533zm-10.661.534c0-.294.239-.533.533-.533h9.062v.533a1.6 1.6 0 001.599 1.599h4.264a1.6 1.6 0 001.599-1.599v-.533h9.062c.294 0 .533.239.533.533v2.132a.533.533 0 01-.533.533H1.598a.533.533 0 01-.533-.533V24.56z"/></symbol><symbol id="icon-about-us-4" viewBox="0 0 32 32"><path d="M31.974 4.524a.534.534 0 00-.43-.363l-1.91-.278-.855-1.731c-.179-.365-.777-.365-.956 0l-.855 1.731-1.91.278a.535.535 0 00-.296.91l1.383 1.348-.326 1.903c-.034.2.048.402.212.522a.53.53 0 00.562.04l1.709-.899 1.709.899a.536.536 0 00.775-.563l-.326-1.903 1.383-1.348a.536.536 0 00.135-.547zm-2.463 1.327a.534.534 0 00-.153.472l.191 1.114-1-.526a.533.533 0 00-.498 0l-1.001.526.191-1.114a.534.534 0 00-.153-.472l-.81-.789 1.119-.163a.532.532 0 00.402-.292l.5-1.013.5 1.013a.535.535 0 00.402.292l1.119.163-.809.789zm-3.378 14.671h-1.067v1.067h1.067v-1.067zm0 2.134h-1.067v1.067h1.067v-1.067zm1.067-1.067h-1.067v1.067H27.2v-1.067zm-2.133 0H24v1.067h1.067v-1.067zm-2.667 4.8h-1.067v1.067H22.4v-1.067zm0 2.133h-1.067v1.067H22.4v-1.067zm1.067-1.066H22.4v1.067h1.067v-1.067zm-2.134 0h-1.067v1.067h1.067v-1.067zM16 24.256h-1.067v1.067H16v-1.067zm0 2.133h-1.067v1.067H16v-1.067zm1.067-1.067H16v1.067h1.067v-1.067zm-2.134 0h-1.067v1.067h1.067v-1.067zm-9.067-19.2H4.799v1.067h1.067V6.122zm0 2.133H4.799v1.067h1.067V8.255z"/><path d="M6.933 7.189H5.866v1.067h1.067V7.189zm-2.133 0H3.733v1.067H4.8V7.189z"/><path d="M24.715 14.159a1.775 1.775 0 00-1.188-.705 1.778 1.778 0 00-1.34.352l-1.252.96-1.898 1.417-1.358-.541c2.421-1.086 4.114-3.508 4.114-6.32 0-3.823-3.123-6.933-6.961-6.933s-6.961 3.11-6.961 6.933a6.86 6.86 0 001.12 3.758l-2.764-.024h-.005c-.009 0-.015.004-.023.005a.515.515 0 00-.155.031l-.038.013c-.006.003-.013.003-.019.006l-3.234 1.597-1.893.911a.397.397 0 00-.063.035 1.779 1.779 0 00-.598 2.295c.22.429.595.745 1.056.889a1.776 1.776 0 001.378-.128l1.388-.738 2.264-1.169 1.357-.008-6.782 6.75c-.316.315-.49.732-.49 1.178s.174.863.49 1.179c.325.323.752.485 1.179.485s.854-.162 1.18-.485l1.314-1.309 1.741-1.3.901.897-3.102 3.089c-.316.315-.49.732-.49 1.178s.174.863.49 1.179c.325.323.753.485 1.18.485s.855-.162 1.18-.485l4.489-4.472c.006-.006.015-.009.022-.015l5.166-5.658 3.471.494a.52.52 0 00.262-.033c.018-.006.033-.015.05-.023.019-.01.039-.015.058-.027l3.213-2.133c.012-.008.018-.021.029-.029.013-.01.029-.014.041-.026l1.271-1.191c.662-.62.753-1.635.212-2.362zM2.13 17.77a.714.714 0 01-.558.052.717.717 0 01-.213-1.26l1.314-.632.449 1.312-.992.527zm3.498-1.828l-1.548.8-.439-1.283 2.027-1.001-.04 1.484zm15.099-6.62a5.79 5.79 0 01-.599 2.559l-4.181-1.899a1.863 1.863 0 00-.788-1.388l1.464-4.86c2.378.756 4.105 2.974 4.105 5.588zm-11.789 0c0-3.235 2.644-5.867 5.894-5.867.253 0 .5.021.745.052l-1.432 4.754c-.019-.001-.037-.006-.057-.006-1.033 0-1.873.837-1.873 1.867s.84 1.867 1.873 1.867c.694 0 1.294-.383 1.618-.945l3.862 1.755a5.894 5.894 0 01-4.737 2.39c-3.25 0-5.894-2.632-5.894-5.867zm5.956.8c0 .441-.362.8-.806.8s-.806-.359-.806-.8c0-.441.362-.8.806-.8s.806.359.806.8zM2.465 25.146a.608.608 0 01-.854.001.592.592 0 010-.844l.962-.958.851.848-.959.955zm3.214 3.734a.608.608 0 01-.855.001.592.592 0 010-.844l.963-.959.852.848-.96.955zm3.481-3.469l-.002.001-1.765 1.76-.852-.848 1.765-1.757c.04-.04.065-.088.09-.135.007-.014.02-.026.026-.04.017-.041.019-.085.026-.129.003-.025.014-.047.014-.073 0-.036-.013-.07-.02-.106-.006-.032-.006-.065-.019-.095a.55.55 0 00-.091-.138c-.01-.012-.014-.027-.025-.038h-.001l-.001-.002-1.607-1.6c-.017-.017-.039-.024-.058-.038a.507.507 0 00-.087-.058.515.515 0 00-.093-.033.507.507 0 00-.103-.02.5.5 0 00-.095.005.53.53 0 00-.104.02.477.477 0 00-.094.045c-.02.011-.042.015-.061.029L4.23 23.485l-.901-.897 2.399-2.386 4.361 4.289-.928.919zm6.819-7.017c-.015-.002-.03.004-.045.003a.556.556 0 00-.3.075.492.492 0 00-.083.061c-.013.011-.028.017-.04.029l-4.698 5.146-4.328-4.257 2.833-2.818a.534.534 0 00-.379-.911v-.001l-2.219.013.028-1.607 3.104.027a6.947 6.947 0 004.981 2.101c.437 0 .864-.045 1.279-.123.04.032.079.065.13.085l2.41.96.152.758.178.885-3.003-.427zm4.041.178l-.313-1.558 1.446-1.08.947 1.257-2.08 1.381zm3.754-2.831l-.838.785-.931-1.236.831-.637a.735.735 0 01.543-.143.718.718 0 01.48.284.713.713 0 01-.085.947z"/><path d="M13.602 18.544l-2.143-2.133a.534.534 0 00-.753 0l-2.142 2.133a.537.537 0 000 .756l2.142 2.133a.536.536 0 00.753 0l2.143-2.133a.535.535 0 000-.756zm-2.519 1.759l-1.387-1.381 1.387-1.381 1.387 1.381-1.387 1.381zm6.081-15.232l-.258 1.036c.071.018 1.738.452 1.738 2.149h1.067c0-2.017-1.666-2.965-2.547-3.185zm2.547 4.251h-1.067v1.067h1.067V9.322z"/></symbol><symbol id="icon-facebook" viewBox="0 0 32 32"><path d="M21.329 5.313h2.921V.225C23.746.156 22.013 0 19.994 0c-4.212 0-7.097 2.649-7.097 7.519V12H8.249v5.688h4.648V32h5.699V17.689h4.46l.708-5.688h-5.169V8.082c.001-1.644.444-2.769 2.735-2.769z"/></symbol><symbol id="icon-insta" viewBox="0 0 32 32"><path d="M31.969 9.408c-.075-1.7-.35-2.869-.744-3.882a7.806 7.806 0 00-1.851-2.838A7.867 7.867 0 0026.542.844C25.523.45 24.36.175 22.66.1 20.947.019 20.403 0 16.059 0s-4.888.019-6.595.094c-1.7.075-2.869.35-3.882.744a7.803 7.803 0 00-2.838 1.85A7.867 7.867 0 00.9 5.52C.506 6.539.231 7.702.156 9.402c-.081 1.713-.1 2.257-.1 6.601s.019 4.888.094 6.595c.075 1.7.35 2.869.744 3.882a7.895 7.895 0 001.85 2.838 7.867 7.867 0 002.832 1.844c1.019.394 2.182.669 3.882.744 1.706.075 2.25.094 6.595.094s4.888-.019 6.595-.094c1.7-.075 2.869-.35 3.882-.744a8.184 8.184 0 004.682-4.682c.394-1.019.669-2.182.744-3.882.075-1.707.094-2.251.094-6.595s-.006-4.888-.081-6.595zm-2.882 13.065c-.069 1.563-.331 2.407-.55 2.969a5.31 5.31 0 01-3.038 3.038c-.563.219-1.413.481-2.969.55-1.688.075-2.194.094-6.464.094s-4.782-.019-6.464-.094c-1.563-.069-2.407-.331-2.969-.55a4.926 4.926 0 01-1.838-1.194 4.974 4.974 0 01-1.194-1.838c-.219-.563-.481-1.413-.55-2.969-.075-1.688-.094-2.194-.094-6.464s.019-4.782.094-6.464c.069-1.563.331-2.407.55-2.969a4.868 4.868 0 011.2-1.838A4.974 4.974 0 016.639 3.55c.563-.219 1.413-.481 2.969-.55 1.688-.075 2.194-.094 6.464-.094 4.276 0 4.782.019 6.464.094 1.563.069 2.407.331 2.969.55a4.914 4.914 0 011.838 1.194 4.974 4.974 0 011.194 1.838c.219.563.481 1.413.55 2.969.075 1.688.094 2.194.094 6.464s-.019 4.77-.094 6.458z"/><path d="M16.059 7.783c-4.538 0-8.22 3.682-8.22 8.22s3.682 8.22 8.22 8.22c4.539 0 8.22-3.682 8.22-8.22s-3.682-8.22-8.22-8.22zm0 13.552a5.333 5.333 0 010-10.664 5.333 5.333 0 010 10.664zM26.524 7.458a1.919 1.919 0 11-3.838 0 1.919 1.919 0 013.838 0z"/></symbol><symbol id="icon-linkedin" viewBox="0 0 32 32"><path d="M31.992 32v-.001H32V20.263c0-5.741-1.236-10.164-7.948-10.164-3.227 0-5.392 1.771-6.276 3.449h-.093v-2.913h-6.364v21.364h6.627V21.42c0-2.785.528-5.479 3.977-5.479 3.399 0 3.449 3.179 3.449 5.657v10.401h6.62zM.528 10.636h6.635V32H.528V10.636zM3.843 0C1.722 0 0 1.721 0 3.843s1.721 3.879 3.843 3.879c2.121 0 3.843-1.757 3.843-3.879A3.846 3.846 0 003.843 0z"/></symbol><symbol id="icon-logo-company-1" viewBox="0 0 29 32"><path d="M3.84 0l4.677 4.428h13.046v12.351l4.677 4.428V.001H3.84z"/><path d="M0 4.241v20.6h21.76v-8.188L8.655 4.247 0 4.242zm17.615 17.587H3.443V7.974h1.002V20.89h13.17v.938zM6.266 28.662l.523-1.078h.438l-.763 1.438v.837h-.397v-.837l-.764-1.438h.439l.523 1.078zm2.247.667h-.881l-.184.53h-.411l.859-2.275h.355l.861 2.275H8.7l-.186-.53zm-.77-.319h.659l-.33-.944-.33.944zm2.328.234c0-.105.029-.202.086-.289.057-.089.17-.193.339-.314-.088-.111-.151-.206-.186-.284s-.052-.154-.052-.227c0-.178.054-.319.162-.422s.254-.156.438-.156a.57.57 0 01.406.147.47.47 0 01.159.361.5.5 0 01-.072.262.879.879 0 01-.236.238l-.155.113.439.519a.9.9 0 00.095-.417h.33c0 .28-.066.51-.197.689l.334.395h-.441l-.128-.152c-.162.122-.356.183-.581.183s-.405-.059-.541-.178a.599.599 0 01-.202-.467zm.753.343a.58.58 0 00.359-.128l-.497-.586-.048.034c-.125.095-.188.203-.188.325 0 .105.034.191.102.256s.158.098.272.098zm-.209-1.466c0 .087.054.197.161.33l.173-.119.048-.039a.28.28 0 00.097-.22.2.2 0 00-.067-.152.236.236 0 00-.17-.064c-.074 0-.133.025-.177.075s-.066.113-.066.189zm4.133.997a.827.827 0 01-.269.569c-.156.135-.364.203-.623.203a.902.902 0 01-.48-.128c-.137-.086-.244-.209-.319-.367s-.114-.342-.117-.552v-.212c0-.215.038-.404.114-.567a.86.86 0 01.821-.511c.251 0 .453.068.606.205s.242.329.267.578h-.394c-.019-.164-.067-.281-.144-.353-.076-.073-.188-.109-.336-.109a.464.464 0 00-.397.189c-.092.125-.139.309-.141.552v.202c0 .246.044.433.131.563s.218.194.387.194c.155 0 .272-.035.35-.105s.128-.186.148-.348h.394zm2.17-.338c0 .223-.039.419-.116.588a.884.884 0 01-.331.388.905.905 0 01-.494.134.926.926 0 01-.494-.134.896.896 0 01-.334-.386 1.362 1.362 0 01-.119-.576v-.128c0-.222.039-.418.117-.588a.887.887 0 01.333-.389c.144-.091.308-.136.494-.136s.349.045.492.134c.144.088.255.217.333.384s.118.361.119.583v.127zm-.395-.118c0-.252-.048-.445-.144-.58a.468.468 0 00-.405-.202.467.467 0 00-.402.202c-.096.133-.145.322-.147.567v.131c0 .25.048.443.145.58s.233.205.406.205a.464.464 0 00.403-.2c.095-.133.142-.328.142-.584v-.119z"/></symbol><symbol id="icon-logo-company-2" viewBox="0 0 25 32"><path d="M10.447 1.806h.084c.156 0 .324.016.49.03.734.052 1.463.162 2.179.329V.403a12.97 12.97 0 00-2.25-.358 18.11 18.11 0 00-.909-.044h-.263a18.35 18.35 0 00-4.515.582 18.3 18.3 0 00-4.79 1.948v17.475a19.484 19.484 0 014.566-1.779 19.948 19.948 0 013.833-.588h.051c.216-.011.433-.017.655-.019v-1.79a21.155 21.155 0 00-4.982.662 23.81 23.81 0 00-1.731.513l-.623.211V3.591l.266-.128a17.409 17.409 0 016.471-1.651.523.523 0 01.056 0c.248-.013.497-.019.741-.019h.28c.129.003.258.006.388.014z"/><path d="M14.838 3.651a15.823 15.823 0 01-2.606-.211c-.277-.047-.55-.103-.814-.164v17.275a13.82 13.82 0 003.425.404 18.396 18.396 0 004.515-.581 18.362 18.362 0 004.792-1.948V1.263a19.562 19.562 0 01-4.564 1.781 19.388 19.388 0 01-4.747.609zm6.907.299l.623-.21v13.63l-.266.128a17.055 17.055 0 01-3.184 1.144c-1.331.344-2.7.522-4.074.527-.411 0-.819-.017-1.214-.052l-.427-.038V5.062l.497.033c.361.023.735.034 1.141.034a21.098 21.098 0 005.173-.663 26.802 26.802 0 001.731-.518zM1.684 25.977a.912.912 0 00-.693-.28 1.034 1.034 0 00-.4.075.91.91 0 00-.512.518 1.023 1.023 0 00-.072.387v2.335c-.006.165.026.328.092.479.055.12.135.226.233.313a.815.815 0 00.321.166c.114.032.231.048.349.049a.972.972 0 00.892-.61.951.951 0 00.075-.372v-.261h-.61v.208a.528.528 0 01-.036.208.359.359 0 01-.089.131.365.365 0 01-.128.067.425.425 0 01-.128.022.314.314 0 01-.286-.125.548.548 0 01-.081-.313v-2.177a.738.738 0 01.075-.349.31.31 0 01.299-.141.33.33 0 01.272.131c.068.09.104.2.101.313v.202h.604v-.238a1.093 1.093 0 00-.279-.737zm3.626-.027a1.091 1.091 0 00-.694-.257 1.075 1.075 0 00-.364.066.961.961 0 00-.559.518 1.099 1.099 0 00-.089.452v2.239a1.08 1.08 0 00.089.459c.055.12.136.227.237.313a.94.94 0 00.322.197c.117.043.24.065.364.066s.248-.022.364-.066c.121-.044.233-.111.33-.197a.948.948 0 00.23-.313c.063-.144.093-.301.089-.459v-2.239a1.08 1.08 0 00-.089-.452 1.015 1.015 0 00-.23-.327zm-.285 3.019a.405.405 0 01-.121.324.445.445 0 01-.574 0 .397.397 0 01-.121-.324V26.73a.405.405 0 01.121-.324.445.445 0 01.574 0 .397.397 0 01.121.324v2.239zm5.047 1V25.73h-.587l-.771 2.244h-.011l-.777-2.244h-.581v4.239h.606V27.39h.011l.593 1.823h.302l.598-1.823h.011v2.579h.606zm3.441-3.942a.84.84 0 00-.343-.232 1.363 1.363 0 00-.439-.066h-.9v4.239h.604v-1.656h.311c.188.009.376-.031.545-.116a.882.882 0 00.332-.324 1.02 1.02 0 00.139-.369c.024-.16.035-.321.033-.482a2.421 2.421 0 00-.059-.606.898.898 0 00-.223-.39zm-.312 1.292a.547.547 0 01-.056.221.346.346 0 01-.156.149.619.619 0 01-.285.053h-.276v-1.441h.311a.578.578 0 01.272.053.349.349 0 01.142.157.62.62 0 01.053.236v.282c0 .099.006.2 0 .291H13.2zm3.173-1.589h-.495l-.934 4.239h.604l.177-.911h.824l.177.911h.604l-.957-4.239zm-.558 2.751l.297-1.537h.011l.296 1.537h-.604zm4.461-.198h-.011l-.912-2.554h-.581v4.239h.604v-2.549h.012l.923 2.549h.568v-4.239h-.604v2.554zm3.691-2.553l-.486 1.685h-.012l-.486-1.685h-.64l.83 2.447v1.792h.604v-1.792l.83-2.447h-.64zM0 31.166h.291v.817h.198v-.817h.29v-.167H.001v.167zm2.447-.168l-.381.984h.21l.081-.224h.392l.084.224h.215l-.391-.984h-.21zm-.031.595l.134-.365.134.365h-.268zm2.45.027h.227v.127a.382.382 0 01-.234.083.244.244 0 01-.209-.093.411.411 0 01-.073-.257c0-.219.095-.329.283-.329a.206.206 0 01.222.157l.195-.038c-.042-.192-.181-.289-.417-.289a.495.495 0 00-.344.127.494.494 0 00-.141.379.532.532 0 00.126.369.477.477 0 00.374.144.59.59 0 00.417-.157v-.388h-.427v.166zm2.471-.622h-.199v.984h.69v-.167h-.49v-.817zm2.089 0h-.199v.984h.199v-.984zm2.043.658l-.403-.657h-.193v.984h.185v-.643l.395.643h.198v-.984h-.182v.657zm1.846-.107h.49v-.167h-.49v-.216h.528v-.167h-.727v.984h.747v-.167h-.548v-.266zm4.477-.162h-.388v-.388h-.198v.984h.198v-.43h.388v.43h.198v-.984h-.198v.388zm1.857.162h.492v-.167h-.492v-.216h.529v-.167h-.727v.984h.746v-.167h-.548v-.266zm2.519 0c.171-.027.258-.117.258-.274a.236.236 0 00-.096-.219.553.553 0 00-.288-.058h-.417v.984h.198v-.412h.039a.261.261 0 01.123.022.21.21 0 01.07.072l.215.313h.237l-.12-.192a.685.685 0 00-.218-.236zm-.199-.136h-.146v-.247h.156a.507.507 0 01.201.023.135.135 0 01.033.046.133.133 0 01-.005.111.128.128 0 01-.037.043.547.547 0 01-.201.023zm2.098.136h.49v-.167h-.49v-.216h.529v-.167h-.729v.984h.747v-.167h-.548v-.266z"/></symbol><symbol id="icon-logo-company-3" viewBox="0 0 31 32"><path d="M4.722 31.103a.088.088 0 01.059.025l.153.161c-.119.13-.266.234-.431.305a1.532 1.532 0 01-.611.109 1.496 1.496 0 01-.574-.102 1.25 1.25 0 01-.712-.733 1.618 1.618 0 01-.098-.571c-.003-.195.033-.39.105-.573.067-.166.168-.317.297-.445.131-.126.287-.224.459-.29.189-.07.389-.104.591-.102.188-.004.375.027.549.093.152.063.291.15.412.257l-.128.171a.122.122 0 01-.033.031.084.084 0 01-.052.013.123.123 0 01-.056-.018l-.069-.046-.096-.058a.978.978 0 00-.302-.103 1.238 1.238 0 00-.228-.018 1.12 1.12 0 00-.425.077.96.96 0 00-.333.215.997.997 0 00-.216.343c-.054.145-.08.298-.078.452-.002.156.024.312.078.46.047.126.119.242.212.341a.863.863 0 00.318.212c.125.049.259.074.394.073.078.001.156-.004.234-.015a.87.87 0 00.354-.122c.054-.034.104-.072.151-.113a.115.115 0 01.073-.029zm4.422-.807c.002.194-.033.386-.103.567-.062.165-.161.315-.288.44s-.282.224-.452.289a1.711 1.711 0 01-1.164 0 1.281 1.281 0 01-.741-.735 1.61 1.61 0 010-1.136c.065-.166.164-.317.291-.447.128-.121.281-.216.45-.279.374-.139.79-.139 1.164 0 .17.066.324.165.452.29.126.127.224.276.289.44.071.183.106.376.103.571zm-.402 0a1.313 1.313 0 00-.073-.456.898.898 0 00-.528-.556 1.23 1.23 0 00-.846 0 .901.901 0 00-.531.556 1.465 1.465 0 000 .912.888.888 0 00.531.554c.273.097.573.097.846 0a.884.884 0 00.528-.554c.051-.147.076-.301.073-.456zm3.419.478l.04.102a3.46 3.46 0 01.044-.102.933.933 0 01.05-.1l.978-1.694c.019-.029.036-.047.056-.053a.217.217 0 01.08-.009h.289v2.755h-.343v-2.112a.753.753 0 010-.095l-.984 1.718c-.012.026-.033.047-.058.063s-.054.023-.084.023h-.056a.154.154 0 01-.141-.086l-1.013-1.729v2.213h-.331v-2.75h.289a.24.24 0 01.08.009c.024.011.043.03.054.053l.999 1.696c.02.031.036.064.05.098zm3.68-.136v1.032h-.383v-2.752h.854a1.67 1.67 0 01.477.06.912.912 0 01.337.171.699.699 0 01.191.27.905.905 0 01.065.352.84.84 0 01-.071.352.744.744 0 01-.207.275.936.936 0 01-.339.182 1.498 1.498 0 01-.461.064l-.463-.007zm0-.296h.463a.992.992 0 00.297-.042.617.617 0 00.214-.119.477.477 0 00.13-.182.579.579 0 00.046-.232.522.522 0 00-.172-.412.766.766 0 00-.515-.148h-.463v1.134zm5.146 1.331h-.302a.133.133 0 01-.084-.026.164.164 0 01-.05-.064l-.26-.666h-1.307l-.27.666a.145.145 0 01-.048.062.132.132 0 01-.086.027h-.302l1.148-2.756h.398l1.164 2.756zm-1.895-1.023h1.08l-.456-1.122a1.828 1.828 0 01-.086-.259l-.044.144c-.013.044-.029.084-.042.117l-.452 1.12zm3.549-1.719a.16.16 0 01.057.049l1.675 2.077v-2.139h.343v2.756h-.191a.173.173 0 01-.078-.016.2.2 0 01-.061-.051l-1.673-2.075a.753.753 0 010 .095v2.048h-.343v-2.756h.203a.163.163 0 01.069.013zm4.896 1.646v1.094h-.383v-1.094l-1.059-1.66h.343a.124.124 0 01.082.024.256.256 0 01.052.062l.662 1.071a1.256 1.256 0 01.117.245l.05-.119c.019-.043.04-.085.065-.126l.653-1.078a.274.274 0 01.05-.058.116.116 0 01.082-.027h.346l-1.06 1.667zm-15.566-6.284c.167.02.335.036.505.051 2.583-1.101 4.768-2.902 6.282-5.18s2.29-4.929 2.231-7.624l-2.846-2.712c.579 2.869.308 5.836-.782 8.567s-2.956 5.12-5.389 6.898z"/><path d="M10.955 24.167l.077.015c2.6-1.772 4.583-4.247 5.691-7.104s1.292-5.965.526-8.922l-4.054-3.862c1.64 3.175 2.3 6.728 1.903 10.246s-1.833 6.857-4.143 9.628zm13.749-9.442c-.689 2.961-2.362 5.632-4.77 7.616a15.094 15.094 0 01-2.266 1.55c1.961-.549 3.764-1.52 5.269-2.838s2.672-2.947 3.412-4.763l-1.644-1.565z"/><path d="M24.059 14.289l-2.341-2.23c-.045 2.543-.804 5.028-2.197 7.197s-3.372 3.943-5.729 5.137h.012a14 14 0 001.572-.089c2.203-.857 4.148-2.219 5.664-3.967s2.553-3.825 3.021-6.047zM11.294 2.664L8.501 0C6.004.919 3.857 2.535 2.34 4.636S.008 9.225 0 11.775c.009 2.818 1.005 5.552 2.829 7.77s4.372 3.793 7.242 4.476c2.561-2.973 4.061-6.647 4.281-10.488s-.851-7.648-3.058-10.869zm19.218 11.214c-.01-3.343-1.408-6.546-3.89-8.91s-5.843-3.696-9.352-3.706a13.655 13.655 0 00-4.741.841l17.099 16.291c.586-1.44.885-2.971.884-4.515z"/></symbol><symbol id="icon-logo-company-4" viewBox="0 0 60 32"><path d="M9.23 9.548h-.002c-1.684 0-3.048 1.33-3.048 2.971v.002c0 1.641 1.365 2.971 3.048 2.971h.002c1.684 0 3.048-1.33 3.048-2.971v-.002c0-1.641-1.365-2.971-3.048-2.971zm22.5-.949c-.005-2.279-.936-4.463-2.589-6.074S25.247.006 22.908.001c-2.339.004-4.581.911-6.235 2.523S14.087 6.32 14.083 8.6v12.566S31.728 19.251 31.73 8.602V8.6zM0 25.289c.004 1.586.652 3.105 1.803 4.226s2.709 1.753 4.336 1.758c1.627-.005 3.185-.636 4.336-1.757s1.799-2.64 1.803-4.225v-8.744S0 17.881 0 25.289zm6.139 1.567c-.318 0-.629-.092-.893-.264s-.47-.417-.592-.703-.154-.601-.091-.905c.062-.304.215-.583.44-.802s.511-.368.823-.429c.312-.06.635-.029.929.089s.545.319.721.577a1.537 1.537 0 01.15 1.471 1.585 1.585 0 01-.87.851c-.195.079-.405.12-.617.12v-.006zm12.532-.972h-1.256v1.297h-.654v-3.174h2.067v.53h-1.413v.82h1.256v.528zm3.144-.218c0 .312-.055.587-.166.822s-.269.417-.475.545c-.205.128-.44.192-.706.192-.263 0-.498-.063-.704-.19s-.366-.307-.48-.541a1.867 1.867 0 01-.172-.811v-.157c0-.312.056-.587.168-.824a1.26 1.26 0 01.477-.547c.206-.128.442-.192.706-.192s.499.064.704.192c.206.126.366.309.477.547.113.237.17.511.17.822v.142zm-.663-.144c0-.333-.06-.586-.179-.759s-.289-.259-.51-.259a.582.582 0 00-.508.257c-.119.17-.18.42-.181.75v.155c0 .324.06.576.179.754s.291.268.515.268a.579.579 0 00.506-.257c.118-.173.177-.424.179-.754v-.155zm2.784.826a.331.331 0 00-.131-.283c-.087-.067-.244-.137-.471-.209a3.432 3.432 0 01-.539-.218c-.36-.195-.541-.457-.541-.787 0-.172.048-.324.144-.458a.945.945 0 01.416-.316c.182-.076.385-.113.61-.113.227 0 .429.041.606.124a.946.946 0 01.412.347c.099.15.148.32.148.51h-.654a.427.427 0 00-.137-.338c-.092-.081-.22-.122-.386-.122a.602.602 0 00-.373.102.317.317 0 00-.133.266c0 .103.052.19.155.259.105.07.258.135.46.196.372.112.643.251.813.416s.255.372.255.619a.767.767 0 01-.312.648c-.208.156-.488.233-.839.233-.244 0-.467-.044-.667-.133a1.07 1.07 0 01-.46-.368.945.945 0 01-.157-.541h.656c0 .35.209.525.628.525a.61.61 0 00.364-.094.313.313 0 00.131-.266zm3.491-1.812h-.972v2.645h-.654v-2.645h-.959v-.53h2.586v.53zm2.285 1.269h-1.256v.85h1.474v.525h-2.128v-3.174h2.124v.53h-1.469v.757h1.256v.512zm1.777.214h-.521v1.162h-.654v-3.174h1.179c.375 0 .664.084.868.251s.305.403.305.709a.973.973 0 01-.142.543.95.95 0 01-.425.344l.687 1.297v.03h-.702l-.595-1.162zm-.521-.53h.528c.164 0 .291-.041.382-.124.09-.084.135-.2.135-.347a.476.476 0 00-.129-.353c-.084-.086-.214-.129-.39-.129h-.525v.953zm3.963.574v1.118h-.654v-3.174h1.238c.238 0 .448.044.628.131a.964.964 0 01.419.373c.097.16.146.342.146.547 0 .311-.107.557-.321.737-.212.179-.507.268-.883.268h-.573zm0-.53h.584c.173 0 .305-.041.395-.122.092-.081.137-.198.137-.349 0-.156-.046-.281-.137-.377s-.218-.145-.379-.148h-.6v.996zm4.138.272h-1.256v.85h1.474v.525h-2.128v-3.174h2.124v.53h-1.469v.757h1.256v.512zm3.035-1.269h-.972v2.645h-.654v-2.645h-.959v-.53h2.586v.53zm2.285 1.269h-1.256v.85h1.474v.525h-2.128v-3.174h2.124v.53h-1.47v.757h1.256v.512zm1.777.214h-.521v1.162h-.654v-3.174h1.18c.375 0 .664.084.868.251s.305.403.305.709a.973.973 0 01-.142.543.95.95 0 01-.425.344l.687 1.297v.03h-.702l-.595-1.162zm-.521-.53h.528c.164 0 .291-.041.382-.124.09-.084.135-.2.135-.347a.476.476 0 00-.129-.353c-.084-.086-.214-.129-.39-.129h-.525v.953zm3.844.859a.331.331 0 00-.131-.283c-.087-.067-.244-.137-.471-.209a3.375 3.375 0 01-.538-.218c-.36-.195-.541-.457-.541-.787 0-.172.048-.324.144-.458a.945.945 0 01.416-.316c.182-.076.385-.113.61-.113.227 0 .429.041.606.124a.946.946 0 01.412.347c.099.15.148.32.148.51h-.654a.427.427 0 00-.137-.338c-.092-.081-.22-.122-.386-.122a.602.602 0 00-.373.102.317.317 0 00-.133.266c0 .103.052.19.155.259.105.07.258.135.46.196.372.112.643.251.813.416s.255.372.255.619a.767.767 0 01-.312.648c-.208.156-.488.233-.839.233-.244 0-.467-.044-.667-.133a1.07 1.07 0 01-.46-.368.945.945 0 01-.157-.541h.656c0 .35.209.525.628.525a.61.61 0 00.364-.094.313.313 0 00.131-.266z"/></symbol><symbol id="icon-logo-company-5" viewBox="0 0 40 32"><path d="M3.055 26.742c.156.195.24.438.236.688a1.092 1.092 0 01-.365.869 1.575 1.575 0 01-1.061.317H0v-4.361h1.827c.361-.024.718.078 1.012.29a.998.998 0 01.354.816c.011.241-.065.477-.212.667a.997.997 0 01-.556.341c.247.045.471.177.63.373zm-2.187-.658h.781a.736.736 0 00.496-.145.507.507 0 00.167-.426.526.526 0 00-.165-.426.75.75 0 00-.511-.147H.868v1.144zm1.354 1.672a.54.54 0 00.185-.443.56.56 0 00-.188-.448.803.803 0 00-.53-.158H.87v1.199h.83a.822.822 0 00.524-.151zm4.568.861l-1.016-1.704h-.382v1.704h-.874v-4.361h1.655c.417-.029.83.103 1.152.371a1.394 1.394 0 01.123 1.804 1.337 1.337 0 01-.789.443l1.082 1.743H6.79zm-1.399-2.299h.715c.497 0 .745-.22.745-.66a.641.641 0 00-.183-.49.771.771 0 00-.562-.177h-.724l.008 1.327zm6.177 1.421H9.826l-.308.878h-.917l1.6-4.312h.991l1.594 4.312h-.917l-.301-.878zm-.233-.66l-.637-1.841-.637 1.841h1.273zm6.215 1.538h-.868l-1.946-2.965v2.965h-.866v-4.361h.866l1.946 2.983v-2.983h.868v4.361zm4.952-1.044a1.877 1.877 0 01-.785.769 2.546 2.546 0 01-1.22.275h-1.545v-4.361h1.545c.422-.011.841.081 1.22.268.332.168.606.433.785.761a2.541 2.541 0 010 2.288zm-.993-.104a1.601 1.601 0 000-2.082 1.506 1.506 0 00-1.086-.371h-.603v2.823h.603a1.5 1.5 0 001.086-.371zM12.111 0s11.201 4.246 10.963 10.39v10.392S11.881 16.534 12.115 10.39L12.111 0zm20.943 18.349a15.301 15.301 0 017.117-2.633v-3.253a14.62 14.62 0 00-7.117 5.886z"/><path d="M31.783 19.329a15.237 15.237 0 018.388-7.548V2.407S24.219 8.455 24.557 17.204v14.795s.711-.271 1.829-.778c0-.473 0-.95.051-1.429a15.387 15.387 0 015.347-10.464z"/><path d="M30.266 24.825a15.35 15.35 0 01.558-3.029 14.323 14.323 0 00-3.378 8.937 46.367 46.367 0 003.068-1.623 15.355 15.355 0 01-.248-4.284zm.634.053a14.705 14.705 0 00.197 3.879c4.358-2.618 9.255-6.664 9.066-11.553v-.426a14.276 14.276 0 00-8.292 3.89 14.648 14.648 0 00-.972 4.21z"/></symbol><symbol id="icon-logo-company-6" viewBox="0 0 62 32"><path d="M31.124 14.854a2.264 2.264 0 01-.397-1.431v-2.075c0-.636.132-1.119.395-1.45s.715-.495 1.356-.494c.602 0 1.029.141 1.282.422.276.359.41.798.379 1.241v.488h-1.077v-.494a2.787 2.787 0 00-.031-.483.482.482 0 00-.154-.287.587.587 0 00-.39-.112.619.619 0 00-.41.118.563.563 0 00-.178.317 2.594 2.594 0 00-.042.513v2.518c-.017.243.031.486.138.707.054.075.128.134.215.171s.183.051.278.04a.545.545 0 00.381-.114.521.521 0 00.161-.306c.025-.167.036-.336.033-.505v-.511h1.077v.466c.03.462-.101.92-.372 1.304-.248.308-.669.462-1.289.462s-1.088-.165-1.353-.507zm4.483.022c-.272-.323-.408-.794-.408-1.416v-2.182c0-.616.136-1.083.408-1.399s.727-.474 1.364-.473c.633 0 1.086.158 1.358.473.272.317.41.783.41 1.399v2.182c0 .616-.138 1.089-.415 1.414s-.727.488-1.353.488-1.09-.165-1.364-.485zm1.866-.524c.097-.202.142-.424.129-.646v-2.672a1.275 1.275 0 00-.127-.633c-.055-.076-.131-.137-.22-.174s-.187-.05-.284-.037c-.097-.013-.195 0-.285.037s-.166.097-.221.174a1.255 1.255 0 00-.129.633v2.685c-.014.222.031.444.129.646.063.068.14.123.227.16a.708.708 0 00.554 0 .664.664 0 00.227-.16v-.013zm2.562-4.884h1.159l.872 4.027.892-4.027h1.128l.114 5.812h-.834l-.089-4.04-.861 4.04h-.669l-.892-4.054-.082 4.054h-.843l.105-5.812zm5.465 0h1.806c1.04 0 1.561.55 1.561 1.65 0 1.054-.548 1.58-1.643 1.579h-.615v2.583h-1.115l.007-5.812zm1.543 2.484c.11.013.222.004.328-.028s.203-.085.285-.156c.128-.196.184-.427.161-.656a1.999 1.999 0 00-.053-.528c-.016-.058-.044-.112-.082-.159s-.086-.087-.141-.117a1.072 1.072 0 00-.497-.093h-.433v1.737h.433zm3.431-2.484h1.197l1.228 5.812H51.86l-.243-1.34h-1.068l-.25 1.34h-1.055l1.228-5.812zm1.023 3.799l-.417-2.44-.417 2.44h.834zm2.394-3.799h.78l1.494 3.316V9.468h.925v5.812h-.742l-1.503-3.461v3.461h-.956l.002-5.812zm5.367 3.596l-1.242-3.588h1.046l.758 2.305.711-2.305h1.023l-1.226 3.588v2.216h-1.07v-2.216zm-26.413 4.758v.304h-.91v2.362h-.381v-2.362h-.914v-.304h2.205zm2.852 2.666h-.294a.124.124 0 01-.083-.025.139.139 0 01-.049-.061l-.263-.633h-1.262l-.263.633a.19.19 0 01-.04.072.122.122 0 01-.083.025h-.294l1.115-2.666h.388l1.128 2.655zm-1.846-.99h1.052l-.446-1.085a2.234 2.234 0 01-.083-.251l-.042.141-.04.112-.441 1.083zm3.767.728a1.071 1.071 0 00.388-.032c.055-.013.108-.029.16-.049.049-.019.098-.042.149-.065v-.599h-.446a.07.07 0 01-.032-.005.081.081 0 01-.045-.039.05.05 0 01-.005-.027v-.205h.865v1.022a1.521 1.521 0 01-.47.218 1.86 1.86 0 01-.279.055 3.22 3.22 0 01-.326.017 1.56 1.56 0 01-.562-.099 1.34 1.34 0 01-.446-.279 1.3 1.3 0 01-.288-.422 1.459 1.459 0 01-.103-.553c-.002-.19.032-.379.1-.557.064-.158.162-.302.288-.422.127-.12.279-.214.446-.277.191-.068.394-.102.597-.099.104 0 .207.008.31.023a1.393 1.393 0 01.488.174c.068.042.133.088.194.139l-.107.165a.098.098 0 01-.087.051.136.136 0 01-.069-.021 1.538 1.538 0 01-.109-.063.975.975 0 00-.149-.072 1.301 1.301 0 00-.205-.059 1.574 1.574 0 00-.283-.023 1.187 1.187 0 00-.43.074.93.93 0 00-.328.211.943.943 0 00-.207.331c-.1.289-.1.6 0 .889a.964.964 0 00.549.547c.142.046.292.064.441.053zm3.554-.042h1.217v.304h-1.59v-2.666h.381l-.009 2.362zm2.484.304h-.381v-2.666h.381v2.666zm1.418-2.654a.183.183 0 01.058.049l1.63 2.009a.753.753 0 010-.095V17.81h.332v2.676h-.192a.17.17 0 01-.083-.015.196.196 0 01-.06-.051l-1.628-2.007v2.073h-.319V17.82h.198c.022 0 .043.004.062.013zm4.827-.012v.293H48.55v.88h1.095v.283H48.55v.91h1.351v.293h-1.743v-2.659h1.743zM9.95 1.359L26.879 5.91v15.946L9.95 17.308V1.36zM8.864 0v18.082l19.098 5.135V5.137L8.864 0z"/><path d="M19.1 31.611L0 26.472V8.392l19.1 5.137v18.082z"/><path d="M9.181 1.155l16.708 4.493-7.105 6.729-16.71-4.496 7.108-6.726zM8.864 0L0 8.392l19.1 5.137 8.862-8.392L8.864 0zm11.311 30.593l7.788-7.374-7.788-2.096v9.47z"/></symbol><symbol id="icon-mail-img" viewBox="0 0 43 32"><path d="M38.667 0H4C1.794 0 0 1.675 0 3.734v22.404c0 2.059 1.794 3.734 4 3.734h34.667c2.206 0 4-1.675 4-3.734V3.734c0-2.059-1.794-3.734-4-3.734zm0 2.489c.181 0 .353.035.511.096L21.334 17.022 3.49 2.585c.158-.061.33-.096.511-.096h34.667zm0 24.894H4c-.736 0-1.333-.558-1.333-1.245V5.216L20.46 19.611c.251.203.563.304.874.304s.622-.101.874-.304L40.001 5.216v20.922c0 .687-.598 1.245-1.333 1.245z"/></symbol><symbol id="icon-tel-img" viewBox="0 0 21 32"><path d="M18.133 0H3.2C1.435 0 0 1.34 0 2.987v25.889c0 1.647 1.435 2.987 3.2 2.987h14.933c1.765 0 3.2-1.34 3.2-2.987V2.987c0-1.647-1.435-2.987-3.2-2.987zM3.2 1.991h14.933c.589 0 1.067.446 1.067.996v20.91H2.133V2.987c0-.549.478-.996 1.067-.996zm14.933 27.881H3.2c-.589 0-1.067-.446-1.067-.996v-2.987H19.2v2.987c0 .55-.478.996-1.067.996z"/><path d="M5.021 27.176c.417.389.417 1.02 0 1.409s-1.092.389-1.508 0c-.417-.389-.417-1.02 0-1.409s1.092-.389 1.508 0z"/></symbol><symbol id="icon-twitter" viewBox="0 0 32 32"><path d="M32 6.078c-1.19.522-2.458.868-3.78 1.036a6.523 6.523 0 002.886-3.626 13.11 13.11 0 01-4.16 1.588A6.574 6.574 0 0022.154 3c-3.632 0-6.556 2.948-6.556 6.562 0 .52.044 1.02.152 1.496-5.454-.266-10.28-2.88-13.522-6.862a6.605 6.605 0 00-.898 3.316 6.57 6.57 0 002.914 5.452 6.479 6.479 0 01-2.964-.808v.072c0 3.188 2.274 5.836 5.256 6.446a6.548 6.548 0 01-1.72.216 5.8 5.8 0 01-1.242-.112c.85 2.598 3.262 4.508 6.13 4.57a13.182 13.182 0 01-8.134 2.798c-.538 0-1.054-.024-1.57-.09A18.469 18.469 0 0010.064 29c12.072 0 18.672-10 18.672-18.668 0-.29-.01-.57-.024-.848A13.087 13.087 0 0032 6.078z"/></symbol><symbol id="icon-send" viewBox="0 0 24 24"><path d="M24 0L0 13.5l7.67 2.84L19.5 5.25l-8.998 12.14.007.002-.009-.002V24l4.301-5.018L20.251 21 24 0z"/></symbol><symbol id="icon-close" viewBox="0 0 30 30"><path d="M21 10.1079L19.8921 9L15.5 13.3921L11.1079 9L10 10.1079L14.3921 14.5L10 18.8921L11.1079 20L15.5 15.6079L19.8921 20L21 18.8921L16.6079 14.5L21 10.1079Z"/></symbol>
<symbol id="icon-email" viewBox="0 0 18 18">
<path d="M15 3H3C2.175 3 1.5075 3.675 1.5075 4.5L1.5 13.5C1.5 14.325 2.175 15 3 15H15C15.825 15 16.5 14.325 16.5 13.5V4.5C16.5 3.675 15.825 3 15 3ZM14.7 6.1875L9.3975 9.5025C9.1575 9.6525 8.8425 9.6525 8.6025 9.5025L3.3 6.1875C3.1125 6.0675 3 5.865 3 5.6475C3 5.145 3.5475 4.845 3.975 5.1075L9 8.25L14.025 5.1075C14.4525 4.845 15 5.145 15 5.6475C15 5.865 14.8875 6.0675 14.7 6.1875Z"/></symbol>


<symbol id="icon-name" viewBox="0 0 18 18">
<path d="M9 9C10.6575 9 12 7.6575 12 6C12 4.3425 10.6575 3 9 3C7.3425 3 6 4.3425 6 6C6 7.6575 7.3425 9 9 9ZM9 10.5C6.9975 10.5 3 11.505 3 13.5V14.25C3 14.6625 3.3375 15 3.75 15H14.25C14.6625 15 15 14.6625 15 14.25V13.5C15 11.505 11.0025 10.5 9 10.5Z"/></symbol>


<symbol id="icon-tel" viewBox="0 0 18 18">
<path d="M13.9958 11.1226L12.1576 10.9127C11.7162 10.862 11.282 11.014 10.9708 11.3252L9.63924 12.6568C7.59123 11.6147 5.91229 9.94296 4.8702 7.8877L6.209 6.54888C6.52018 6.2377 6.67216 5.80349 6.6215 5.36205L6.41163 3.53836C6.32479 2.80745 5.70966 2.25745 4.97151 2.25745H3.71955C2.90179 2.25745 2.22153 2.93771 2.27219 3.75547C2.65574 9.93572 7.59847 14.8712 13.7714 15.2548C14.5892 15.3054 15.2695 14.6252 15.2695 13.8074V12.5555C15.2767 11.8245 14.7267 11.2094 13.9958 11.1226Z"/></symbol>
<symbol id="icon-check" viewBox="0 0 16 15">
<path d="M3.95703 7.75166L3.88825 7.68604L3.81923 7.75141L2.93123 8.59258L2.85486 8.66492L2.93097 8.73753L6.42671 12.0724L6.49574 12.1382L6.56476 12.0724L14.069 4.91352L14.1449 4.84116L14.069 4.76881L13.1873 3.92764L13.1183 3.86183L13.0493 3.92761L6.49577 10.1735L3.95703 7.75166Z"/></symbol>
<symbol id="icon-noncheck" viewBox="0 0 16 15">
<path d="M14.2222 1.66667V13.3333H1.77778V1.66667H14.2222ZM14.2222 0H1.77778C0.8 0 0 0.75 0 1.66667V13.3333C0 14.25 0.8 15 1.77778 15H14.2222C15.2 15 16 14.25 16 13.3333V1.66667C16 0.75 15.2 0 14.2222 0Z"/></symbol>

<symbol id="icon-menu" viewBox="0 0 40 40">
<path d="M8 14.6667V12H32V14.6667H8ZM8 21.3333H32V18.6667H8V21.3333ZM8 28H32V25.3333H8V28Z"/></symbol>

<symbol id="icon-close-menu" viewBox="0 0 40 40">
<path d="M29.6667 12.88L27.7867 11L20.3333 18.4533L12.88 11L11 12.88L18.4533 20.3333L11 27.7867L12.88 29.6667L20.3333 22.2133L27.7867 29.6667L29.6667 27.7867L22.2133 20.3333L29.6667 12.88Z"/></symbol>

<symbol id="icon-search" enable-background="new 0 0 512 512"  viewBox="0 0 512 512" xmlns="http://www.w3.org/2000/svg"><g><g><path d="m414.843 263.5h22.298c3.489 17.265 18.777 30.305 37.055 30.305 20.845 0 37.804-16.959 37.804-37.805s-16.959-37.805-37.805-37.805c-18.278 0-33.566 13.04-37.055 30.305h-22.298c-1.783-38.203-17.103-72.927-41.27-99.466l40.164-40.163c7.906 5.757 17.627 9.166 28.134 9.166 26.416 0 47.906-21.491 47.906-47.907s-21.49-47.906-47.906-47.906-47.906 21.491-47.906 47.906c0 10.507 3.408 20.228 9.166 28.134l-40.164 40.163c-26.539-24.166-61.263-39.487-99.466-41.269v-22.298c17.265-3.489 30.305-18.777 30.305-37.055 0-20.846-16.959-37.805-37.805-37.805s-37.805 16.959-37.805 37.805c0 18.278 13.04 33.566 30.305 37.055v22.297c-38.203 1.783-72.927 17.103-99.466 41.269l-40.161-40.16c5.758-7.907 9.167-17.629 9.167-28.136 0-15.952-7.901-30.807-21.135-39.737-3.436-2.316-8.097-1.412-10.412 2.022-2.317 3.434-1.412 8.095 2.021 10.412 9.096 6.137 14.525 16.344 14.525 27.303 0 18.146-14.764 32.91-32.91 32.91s-32.909-14.764-32.909-32.91c0-14.654 9.835-27.679 23.917-31.674 3.985-1.131 6.299-5.278 5.168-9.263s-5.28-6.296-9.262-5.168c-20.504 5.818-34.823 24.777-34.823 46.105 0 26.418 21.492 47.91 47.91 47.91 10.508 0 20.23-3.409 28.136-9.167l40.161 40.16c-24.167 26.539-39.487 61.263-41.27 99.466h-22.297c-3.489-17.265-18.777-30.305-37.055-30.305-20.846.001-37.805 16.96-37.805 37.806s16.959 37.805 37.805 37.805c18.278 0 33.566-13.04 37.055-30.305h22.298c1.783 38.203 17.103 72.927 41.27 99.466l-40.164 40.163c-7.906-5.757-17.627-9.166-28.134-9.166-26.416 0-47.906 21.491-47.906 47.907s21.49 47.906 47.906 47.906 47.906-21.491 47.906-47.906c0-10.507-3.408-20.228-9.166-28.134l40.164-40.163c26.539 24.166 61.263 39.487 99.466 41.269v22.297c-17.265 3.489-30.305 18.777-30.305 37.055 0 20.847 16.959 37.806 37.805 37.806s37.805-16.959 37.805-37.805c0-18.278-13.04-33.566-30.305-37.055v-22.297c38.203-1.783 72.927-17.103 99.466-41.269l40.161 40.16c-5.758 7.907-9.167 17.629-9.167 28.136 0 26.417 21.492 47.91 47.91 47.91s47.91-21.492 47.91-47.91c0-5.186-.826-10.293-2.455-15.182-1.311-3.929-5.56-6.053-9.486-4.744-3.93 1.31-6.054 5.557-4.744 9.487 1.118 3.355 1.686 6.868 1.686 10.438 0 18.146-14.764 32.91-32.91 32.91s-32.91-14.763-32.91-32.91 14.764-32.91 32.91-32.91c4.153 0 8.203.764 12.037 2.271 3.851 1.515 8.208-.382 9.724-4.237 1.515-3.855-.382-8.208-4.237-9.724-5.589-2.196-11.484-3.31-17.523-3.31-10.508 0-20.23 3.409-28.136 9.167l-40.161-40.16c24.164-26.539 39.485-61.263 41.268-99.466zm59.352-30.305c12.575 0 22.805 10.23 22.805 22.805s-10.23 22.805-22.805 22.805-22.805-10.23-22.805-22.805 10.231-22.805 22.805-22.805zm-32.325-195.971c18.145 0 32.906 14.762 32.906 32.906 0 18.145-14.762 32.907-32.906 32.907s-32.906-14.762-32.906-32.907 14.762-32.906 32.906-32.906zm-208.675.581c0-12.575 10.231-22.805 22.805-22.805s22.805 10.23 22.805 22.805-10.231 22.805-22.805 22.805-22.805-10.231-22.805-22.805zm-195.39 241c-12.575 0-22.805-10.23-22.805-22.805s10.23-22.805 22.805-22.805 22.804 10.23 22.804 22.805-10.23 22.805-22.804 22.805zm218.195-166.829c79.415 0 144.024 64.609 144.024 144.024s-64.609 144.024-144.024 144.024-144.024-64.608-144.024-144.024 64.609-144.024 144.024-144.024zm-185.87 362.8c-18.145 0-32.906-14.762-32.906-32.906 0-18.145 14.762-32.907 32.906-32.907s32.906 14.762 32.906 32.907-14.762 32.906-32.906 32.906zm208.675-.581c0 12.575-10.231 22.805-22.805 22.805s-22.805-10.23-22.805-22.805 10.231-22.805 22.805-22.805 22.805 10.231 22.805 22.805z"></path><path d="m171.15 348.35h42.355c.023 0 .045.003.068.003s.045-.003.068-.003h24.859c4.143 0 7.5-3.358 7.5-7.5s-3.357-7.5-7.5-7.5h-17.427v-12.7c0-4.142-3.357-7.5-7.5-7.5s-7.5 3.358-7.5 7.5v12.7h-27.423v-36.94c0-18.146 14.759-32.91 32.899-32.91h88.9c18.141 0 32.899 14.764 32.899 32.91v36.94h-27.423v-12.7c0-4.142-3.357-7.5-7.5-7.5s-7.5 3.358-7.5 7.5v12.7h-17.425c-4.143 0-7.5 3.358-7.5 7.5s3.357 7.5 7.5 7.5h24.859c.023 0 .045.003.068.003s.045-.003.068-.003h42.355c4.143 0 7.5-3.358 7.5-7.5v-44.44c0-26.418-21.487-47.91-47.899-47.91h-5.568c11.738-10.622 19.126-25.968 19.126-43.008 0-31.986-26.022-58.008-58.008-58.008s-58.008 26.022-58.008 58.008c0 17.04 7.388 32.386 19.126 43.008h-5.568c-26.412 0-47.899 21.492-47.899 47.91v44.44c-.002 4.142 3.356 7.5 7.498 7.5zm41.842-142.858c0-23.714 19.293-43.008 43.008-43.008s43.008 19.293 43.008 43.008-19.293 43.008-43.008 43.008-43.008-19.293-43.008-43.008z"></path></g></g></symbol>

<symbol version="1.1" id="icon-seas" xmlns="http://www.w3.org/2000/svg" xmlns:xlink="http://www.w3.org/1999/xlink" x="0px" y="0px" viewBox="16 2 85 100" height="512" width="512" xml:space="preserve">
                                <g>
                                    <path class="st0" d="M58.6,11.3c5.9,2.2,11.7,5,17.5,7.4c3.4,1.5,7.1,2.7,10.1,5.1c4.7,3.7,9.4,7.4,14,11.1c0,3.1,0,6.2-0.1,9.3
                                        c-1.6,0.1-3.3,0.1-5,0.1c0,6.6,0.1,13.1-0.1,19.7c-0.5-0.4-1.4-1.1-1.8-1.5c-0.6-6.1-0.1-12.2-0.2-18.2c-1.2,0-2.4,0-3.6,0
                                        c-0.1,6.4,0.3,12.8-0.2,19.2c-0.5-0.1-1.4-0.3-1.8-0.5c-0.4-6.3,0-12.5-0.2-18.8c-1.4,0-2.9,0.1-4.3,0.1
                                        c-7.5-9.5-14.9-19-22.4-28.6c0,10.4,0,20.8,0,31.2c2,0,4,0,6,0c0.1,2.6,0.1,5.3,0,7.9c-4.7,0.1-9.4,0-14.1,0
                                        c-0.1-2.6-0.1-5.3,0-7.9c2,0,4,0,6,0C58.5,35.1,58.3,23.2,58.6,11.3 M62.8,15.3c6.6,8.2,13,16.5,19.5,24.9
                                        c-0.2-5.4,0.3-10.9-0.2-16.3C75.9,20.6,69.2,18.3,62.8,15.3 M84.4,25.2c0,3,0,6,0,9.1c3.9,0,7.7,0,11.6,0
                                        C92.1,31.3,88.3,28.2,84.4,25.2 M84.6,36.4l-0.4,3.2c0.6-0.2,1.9-0.5,2.6-0.7l-1.2-0.9c2.2,0.2,4.6,0.1,6.1,2
                                        c-1.9,0.3-3.8,0.5-5.7,0.6l0-1.3c-0.6,0.9-1.2,1.8-1.8,2.6c4.6,0.5,9.2,0.3,13.8,0.4c0-1.9,0-3.8,0-5.7
                                        C93.5,36.4,89.1,36.4,84.6,36.4 M54.5,49.1c0,1.2,0,2.4,0,3.6c3.3,0,6.7,0,10,0c0-1.2,0-2.4,0-3.6C61.2,49.1,57.8,49.1,54.5,49.1
                                        M28.2,57.2c7.1-0.5,14.1-0.1,21.2-0.2c0.2,4.4,0.1,8.7,0.1,13.1c10.4,0,20.9,0,31.3,0c1.1-1.1,2.2-2.3,3.2-3.4
                                        c5.5,0,11-0.1,16.5,0.1c-3.1,6.6-8,12.1-12.5,17.8c2.5-0.3,5-0.8,7.6-1.1c-1.4,4.1-7,3.4-10.1,1.8c-3.5-2.1-7,0.8-10.6,1.3
                                        c-3.1,0.2-5.9-1.9-8.9-2.2c-2.4,0.6-4.6,1.8-7,2.2c-2.1,0.1-4.1-1-6-1.6c-3-1.6-6,1.1-9,1.5c-4.2,1-7.9-3.5-12-1.4
                                        c-3.3,1.7-7.3,2.1-10.5-0.2l0.5-1.4c2.3,0.3,4.5,0.9,6.9,1c-2.3-4.6-5.3-8.9-7-13.8c2-0.6,4.1-0.6,6.1-0.7
                                        C28.1,65.7,27.7,61.4,28.2,57.2 M30.2,59.2c0,3.6,0,7.3,0,10.9c5.8,0,11.5,0,17.3,0c0-3.7,0-7.3,0-10.9
                                        C41.7,59.2,35.9,59.2,30.2,59.2 M80.1,72.3c-18.5,0.1-36.9,0-55.4,0c1.8,3.6,3.8,7.1,5.9,10.6c3.2-1,6.4-0.4,9.3,0.9
                                        c3.1,1.7,6.1-0.6,9.1-1.3c4.1-1.4,7.8,3.4,11.8,1.3c1.7-0.6,3.3-1.3,5-1.6c3.7,0,7.1,3.5,10.8,1.6c3.1-1.4,6.4-1.7,9.7-1.2
                                        c4.2-4,7.4-9,10.6-13.8c-4,0-8,0-12,0C83.6,70.1,82.4,72.5,80.1,72.3 M37.2,62c3.1-0.1,6.3-0.1,9.4,0c-1.3,3.3-5.3,1.9-8,1.9
                                        C38.2,63.4,37.5,62.4,37.2,62 M56,64.1c1.8-2.8,5.3-1.7,8.1-1.9c1.6-0.3,2.8,0.7,3.8,1.9C63.9,64.5,60,64.5,56,64.1 M68.9,64.1
                                        c1.8-2.8,5.4-1.7,8.2-1.9c1.6-0.3,2.8,0.8,3.8,1.9C76.9,64.5,72.9,64.5,68.9,64.1 M56,68.1c1.7-2.9,5.3-1.8,8-2
                                        c1.7-0.3,2.9,0.7,3.9,2C63.9,68.5,60,68.5,56,68.1 M69,68.1c1.7-2.9,5.3-1.8,8.1-1.9c1.7-0.3,2.8,0.8,3.8,2
                                        C76.9,68.5,72.9,68.5,69,68.1L69,68.1z"></path>
                                </g>
                                </symbol>

								<symbol id="icon-sea2" viewBox="0 0 512 512" xmlns="http://www.w3.org/2000/svg"><g id="Outline"><path d="m422.584 118.483c9.31-36.022 5.225-64.028-11.907-81.16-12.611-12.611-30.922-18.149-54.431-16.473-20.807 1.488-44.752 8.593-71.188 21.091a219.277 219.277 0 0 0 -29.058-1.941 216 216 0 0 0 -216 216 219.277 219.277 0 0 0 1.941 29.058c-12.5 26.436-19.6 50.381-21.091 71.188-1.68 23.506 3.862 41.82 16.473 54.431 11.153 11.153 26.913 16.779 46.5 16.779a139.81 139.81 0 0 0 34.657-4.877 216.014 216.014 0 0 0 304.107-304.1zm-65.2-81.673c18.669-1.333 32.793 2.644 41.976 11.827 8.2 8.2 15.943 24.3 10.092 55.366-.242-.245-.477-.494-.72-.738a214.75 214.75 0 0 0 -95.928-55.748c16.337-6.117 31.47-9.77 44.583-10.707zm-135.1 22.047-6.094 27.407a8 8 0 0 0 5.28 9.325l44.205 14.736 6.736 20.2a8 8 0 0 0 3.151 4.126l19.31 12.873-5.919 23.676-49.11 35.079-19.22-12.814-31.823-23.865a8 8 0 0 0 -10.457.743l-24 24a8 8 0 0 0 -2.343 5.657v36.686l-12.5 12.5-38.475 15.39a8 8 0 0 0 -3.685 2.99l-16 24a7.993 7.993 0 0 0 -1.34 4.434v36l-6.8 5.1a198.842 198.842 0 0 1 -17.2-81.1c0-98.79 72-181.068 166.283-197.143zm-173.647 340.506c-9.183-9.182-13.162-23.305-11.827-41.976.937-13.113 4.59-28.246 10.707-44.58a214.75 214.75 0 0 0 55.748 95.928c.244.244.494.479.739.721-31.068 5.849-47.166-1.893-55.367-10.093zm101.263-20.941-12.285-18.422 12.6-18.9 14.522-14.522 26.686-13.344 20.137 13.425a7.993 7.993 0 0 0 4.44 1.341h12.687l10.695 10.7c-25.768 20.357-51.757 37.2-76.381 49.556zm100.862-28.35 7.585 7.585a8 8 0 0 0 7.6 2.1l24.813-6.2 4.807 14.443-5.892 17.675-20.2 6.736a8 8 0 0 0 -5.475 7.589v19.719l-20.438 13.625a8 8 0 0 0 -3.323 4.714l-4.239 16.942a198.85 198.85 0 0 1 -29.967-5.322l-6.112-42.812a8 8 0 0 0 -7.921-6.866h-13.333l-1.469-1.1c23.962-12.7 48.915-29.244 73.56-48.828zm-79.562 64.328a8 8 0 0 0 4.8 1.6h9.061l4.067 28.488a199.749 199.749 0 0 1 -51.925-27.7q11.7-4.188 23.977-9.907zm81.055 41.552 2.755-11.011 21.428-14.285a8 8 0 0 0 3.562-6.656v-18.234l18.53-6.177a8 8 0 0 0 5.059-5.059l8-24a7.992 7.992 0 0 0 0-5.06l-8-24a8 8 0 0 0 -9.529-5.231l-27.606 6.9-3.245-3.245q11.2-9.414 22.227-19.6l-10.872-11.74q-11.249 10.417-22.709 19.991l-14.2-14.2a8 8 0 0 0 -5.655-2.345h-13.578l-21.984-14.656a8 8 0 0 0 -8.016-.5l-32 16a7.986 7.986 0 0 0 -2.079 1.5l-16 16a8.052 8.052 0 0 0 -1 1.219l-16 24a8 8 0 0 0 0 8.876l16 24a8.014 8.014 0 0 0 1.857 1.961l7.36 5.52a237.33 237.33 0 0 1 -24.022 8.9 201.3 201.3 0 0 1 -42.12-53.131l12.382-9.289a8 8 0 0 0 3.2-6.4v-37.578l13.278-19.917 37.693-15.077a8.01 8.01 0 0 0 2.686-1.771l16-16a8 8 0 0 0 2.343-5.657v-36.687l16.75-16.75 26.45 19.837q.177.133.362.256l24 16a8 8 0 0 0 9.088-.146l56-40a8 8 0 0 0 3.111-4.57l8-32a8 8 0 0 0 -3.323-8.6l-21.716-14.478-7.133-21.4a8 8 0 0 0 -5.059-5.059l-41.155-13.711 5.774-25.975c5.558-.466 11.175-.717 16.851-.717a199.545 199.545 0 0 1 148.818 66.536c-6.156 20.121-16.333 42.079-30.3 65.347l13.718 8.234c12.381-20.63 21.942-40.376 28.556-58.91a199 199 0 0 1 36.855 88.126l-25.833 15.848a8 8 0 0 0 -3.578 4.879l-14.936 59.74-43.83 14.611a8 8 0 0 0 -5.47 7.589v44.686l-13.657 13.657a8 8 0 0 0 -1.289 9.626l16.9 29.581a198.8 198.8 0 0 1 -105.954 30.45c-1.252 0-2.5-.025-3.745-.048zm122.953-39.46-13.23-23.156 11.679-11.679a8 8 0 0 0 2.343-5.657v-42.234l42.53-14.177a8 8 0 0 0 5.231-5.649l15.208-60.83 16.593-10.179c.28 4.322.438 8.677.438 13.069a199.831 199.831 0 0 1 -80.792 160.492z"></path><path d="m400 288v-64a8 8 0 0 0 -5.8-7.692l-56-16a7.991 7.991 0 0 0 -4.4 0l-56 16a8 8 0 0 0 -5.8 7.692v64a8 8 0 0 0 5.8 7.692l56 16a8 8 0 0 0 4.4 0l56-16a8 8 0 0 0 5.8-7.692zm-64-71.68 26.879 7.68-26.879 7.68-26.879-7.68zm-48 18.286 40 11.429v47.359l-40-11.428zm56 58.788v-47.359l40-11.429v47.36z"></path><path d="m248 152h16v16h-16z"></path><path d="m144 120h16v16h-16z"></path><path d="m104 216h16v16h-16z"></path><path d="m176 336h16v16h-16z"></path><path d="m224 392h16v16h-16z"></path><path d="m392 344h16v16h-16z"></path></g></symbol>

								<symbol version="1.1" id="icon-sea3" xmlns="http://www.w3.org/2000/svg" xmlns:xlink="http://www.w3.org/1999/xlink" x="0px" y="0px" viewBox="0 0 512 512" style="enable-background:new 0 0 512 512;" xml:space="preserve">
                                    <g>
                                        <g>
                                            <path d="M119.467,337.067c-28.237,0-51.2,22.963-51.2,51.2c0,28.237,22.963,51.2,51.2,51.2s51.2-22.963,51.2-51.2
                                                C170.667,360.03,147.703,337.067,119.467,337.067z M119.467,422.4c-18.825,0-34.133-15.309-34.133-34.133
                                                c0-18.825,15.309-34.133,34.133-34.133s34.133,15.309,34.133,34.133C153.6,407.091,138.291,422.4,119.467,422.4z"></path>
                                        </g>
                                    </g>
                                    <g>
                                        <g>
                                            <path d="M409.6,337.067c-28.237,0-51.2,22.963-51.2,51.2c0,28.237,22.963,51.2,51.2,51.2c28.237,0,51.2-22.963,51.2-51.2
                                                C460.8,360.03,437.837,337.067,409.6,337.067z M409.6,422.4c-18.825,0-34.133-15.309-34.133-34.133
                                                c0-18.825,15.309-34.133,34.133-34.133c18.825,0,34.133,15.309,34.133,34.133C443.733,407.091,428.425,422.4,409.6,422.4z"></path>
                                        </g>
                                    </g>
                                    <g>
                                        <g>
                                            <path d="M510.643,289.784l-76.8-119.467c-1.57-2.441-4.275-3.917-7.177-3.917H332.8c-4.719,0-8.533,3.823-8.533,8.533v213.333
                                                c0,4.719,3.814,8.533,8.533,8.533h34.133v-17.067h-25.6V183.467h80.674l72.926,113.442v82.825h-42.667V396.8h51.2
                                                c4.719,0,8.533-3.814,8.533-8.533V294.4C512,292.77,511.531,291.157,510.643,289.784z"></path>
                                        </g>
                                    </g>
                                    <g>
                                        <g>
                                            <path d="M375.467,277.333V217.6h68.267v-17.067h-76.8c-4.719,0-8.533,3.823-8.533,8.533v76.8c0,4.719,3.814,8.533,8.533,8.533h128
                                                v-17.067H375.467z"></path>
                                        </g>
                                    </g>
                                    <g>
                                        <g>
                                            <path d="M332.8,106.667H8.533C3.823,106.667,0,110.49,0,115.2v273.067c0,4.719,3.823,8.533,8.533,8.533H76.8v-17.067H17.067v-256
                                                h307.2v256H162.133V396.8H332.8c4.719,0,8.533-3.814,8.533-8.533V115.2C341.333,110.49,337.519,106.667,332.8,106.667z"></path>
                                        </g>
                                    </g>
                                    <g>
                                        <g>
                                            <rect x="8.533" y="345.6" width="51.2" height="17.067"></rect>
                                        </g>
                                    </g>
                                    <g>
                                        <g>
                                            <rect x="179.2" y="345.6" width="145.067" height="17.067"></rect>
                                        </g>
                                    </g>
                                    <g>
                                        <g>
                                            <rect x="469.333" y="345.6" width="34.133" height="17.067"></rect>
                                        </g>
                                    </g>
                                    <g>
                                        <g>
                                            <rect x="34.133" y="140.8" width="298.667" height="17.067"></rect>
                                        </g>
                                    </g>
                                    <g>
                                        <g>
                                            <rect x="110.933" y="379.733" width="17.067" height="17.067"></rect>
                                        </g>
                                    </g>
                                    <g>
                                        <g>
                                            <rect x="401.067" y="379.733" width="17.067" height="17.067"></rect>
                                        </g>
                                    </g>
                                    <g>
                                        <g>
                                            <rect x="34.133" y="72.533" width="119.467" height="17.067"></rect>
                                        </g>
                                    </g>
                                    <g>
                                        <g>
                                            <rect y="72.533" width="17.067" height="17.067"></rect>
                                        </g>
                                    </g>
                                </symbol>
</defs>
</svg>








